<svg id="Texto" xmlns="http://www.w3.org/2000/svg" viewBox="0 0 1080 703.94"><defs><style>.cls-1{fill:#392913;}.cls-2{fill:#5d9011;}.cls-3{fill:#ffde36;}</style></defs><title>Mapa</title><path class="cls-1" d="M912.54,444.66H133.1a31.89,31.89,0,0,1-31.86-31.85V263.71a31.89,31.89,0,0,1,31.86-31.86H912.54a31.89,31.89,0,0,1,31.86,31.86v149.1A31.89,31.89,0,0,1,912.54,444.66ZM133.1,234.85a28.9,28.9,0,0,0-28.86,28.86v149.1a28.89,28.89,0,0,0,28.86,28.85H912.54a28.89,28.89,0,0,0,28.86-28.85V263.71a28.9,28.9,0,0,0-28.86-28.86Z"/><path class="cls-1" d="M1045.19,633.4H512.74v-3h532.45a26.34,26.34,0,0,0,26.31-26.31V107.24a26.34,26.34,0,0,0-26.31-26.31H512.74v-3h532.45a29.35,29.35,0,0,1,29.31,29.31V604.09A29.35,29.35,0,0,1,1045.19,633.4Z"/><path class="cls-1" d="M657.63,444.66H367.86V231.85H657.63Zm-286.77-3H654.63V234.85H370.86Z"/><rect class="cls-1" x="512.62" y="71.18" width="3" height="162.17"/><rect class="cls-1" x="512.62" y="443.16" width="3" height="179.12"/><rect class="cls-2" x="7" y="300.69" width="187.82" height="60.47" rx="11.83" ry="11.83"/><rect class="cls-2" x="543.89" y="300.69" width="225.39" height="60.47" rx="11.83" ry="11.83"/><rect class="cls-2" x="840.74" y="300.69" width="205.23" height="60.47" rx="11.83" ry="11.83"/><rect class="cls-2" x="266.28" y="278.7" width="206.15" height="104.45" rx="11.83" ry="11.83"/><rect class="cls-2" x="389.97" y="580.13" width="250.12" height="104.45" rx="11.83" ry="11.83"/><rect class="cls-2" x="389.97" y="19.42" width="250.12" height="104.45" rx="11.83" ry="11.83"/><path class="cls-3" d="M445.78,89.41a4,4,0,0,0,2.75-.88,3.09,3.09,0,0,0,.93-2c.08-.75.11-2.06.11-3.93V58.9c0-1.54.06-2.86.17-4l-4,.22V52.74h12.37v1.82a3.92,3.92,0,0,0-2.75.88,3.13,3.13,0,0,0-.94,2c-.07.75-.11,2.06-.11,3.93V84.68a41.73,41.73,0,0,1-.16,4.34l4-.22v2.42H445.78Z"/><path class="cls-3" d="M463.15,89.57a2.88,2.88,0,0,0,2.28-.79,3.46,3.46,0,0,0,.8-2c.07-.79.13-2.1.16-3.93l.06-12.54a21.7,21.7,0,0,1,.22-3.57l-3.9.22V64.67a18.21,18.21,0,0,0,4.45-.36,5,5,0,0,0,2-1.12h1.6c.07.69.14,1.81.22,3.35a15.5,15.5,0,0,1,4.26-2.67,12.06,12.06,0,0,1,4.7-1q4.77,0,7,3c1.46,2,2.2,5.11,2.2,9.32V85.4a24.32,24.32,0,0,1-.22,3.73l3.46-.16v2.25H481.24V89.57a2.88,2.88,0,0,0,2.28-.79,3.62,3.62,0,0,0,.82-2c.09-.82.14-2.11.14-3.87v-7.7q-.06-4.73-1.54-7.12a5.11,5.11,0,0,0-4.67-2.39,8.61,8.61,0,0,0-3.93,1,9.57,9.57,0,0,0-3.22,2.58c0,.41.06,1.12.06,2.15l-.06,14a23.09,23.09,0,0,1-.22,3.73l3.46-.16v2.25H463.15Z"/><path class="cls-3" d="M496.52,89.57a2.88,2.88,0,0,0,2.28-.79,3.62,3.62,0,0,0,.82-2c.09-.82.14-2.11.14-3.87V70.33a31.81,31.81,0,0,1,.22-3.57l-3.9.22V64.67a20,20,0,0,0,4.64-.38,5.2,5.2,0,0,0,2.17-1.1h1.6V85.4a23.09,23.09,0,0,1-.22,3.73l3.46-.16v2.25H496.52Zm3.41-32.79a3.25,3.25,0,0,1-.88-2.28,3.33,3.33,0,0,1,.9-2.31,2.76,2.76,0,0,1,2.07-1,2.71,2.71,0,0,1,2.11,1A3.41,3.41,0,0,1,505,54.5a3.22,3.22,0,0,1-.9,2.28,2.84,2.84,0,0,1-2.12,1A2.67,2.67,0,0,1,499.93,56.78Z"/><path class="cls-3" d="M518.53,90.4a12.53,12.53,0,0,1-4.92-4.9A14.94,14.94,0,0,1,511.8,78a15.45,15.45,0,0,1,1.84-7.33A15,15,0,0,1,518.75,65a13.2,13.2,0,0,1,7.4-2.14,14,14,0,0,1,5.27.93A9.11,9.11,0,0,1,535,66.26a5.14,5.14,0,0,1,1.29,3.36,3.07,3.07,0,0,1-.72,2.09,2.46,2.46,0,0,1-2,.82,2.11,2.11,0,0,1-1.81-.8,2.74,2.74,0,0,1-.6-1.67,3,3,0,0,1,.82-2.2,3.68,3.68,0,0,0-2.34-2.34,10,10,0,0,0-3.43-.63,7.89,7.89,0,0,0-4.54,1.37,9.17,9.17,0,0,0-3.16,4,15.68,15.68,0,0,0-1.15,6.32,16.92,16.92,0,0,0,1.18,6.54,10.53,10.53,0,0,0,3.32,4.48,8,8,0,0,0,5,1.62,9.92,9.92,0,0,0,4.87-1.34,10.93,10.93,0,0,0,3.76-3.38l1.43,1.1a13.37,13.37,0,0,1-5.25,4.83,13.71,13.71,0,0,1-6.29,1.65A14.08,14.08,0,0,1,518.53,90.4Z"/><path class="cls-3" d="M541.21,89.57a2.88,2.88,0,0,0,2.28-.79,3.7,3.7,0,0,0,.83-2c.09-.82.13-2.11.13-3.87V70.33a34.38,34.38,0,0,1,.22-3.57l-3.9.22V64.67a20.12,20.12,0,0,0,4.65-.38,5.33,5.33,0,0,0,2.17-1.1h1.59V85.4a23.09,23.09,0,0,1-.22,3.73l3.46-.16v2.25H541.21Zm3.41-32.79a3.25,3.25,0,0,1-.88-2.28,3.29,3.29,0,0,1,.91-2.31,2.72,2.72,0,0,1,4.17,0,3.42,3.42,0,0,1,.86,2.34,3.23,3.23,0,0,1-.91,2.28,2.84,2.84,0,0,1-2.12,1A2.67,2.67,0,0,1,544.62,56.78Z"/><path class="cls-3" d="M563.33,90.31a13.18,13.18,0,0,1-5-5,14.1,14.1,0,0,1-1.84-7.2,16.62,16.62,0,0,1,1.82-7.78,13.93,13.93,0,0,1,5-5.5,12.87,12.87,0,0,1,7-2,13.69,13.69,0,0,1,7,1.84,13.49,13.49,0,0,1,5,5,13.88,13.88,0,0,1,1.84,7.09,16.36,16.36,0,0,1-1.84,7.7,14.44,14.44,0,0,1-5,5.55,12.75,12.75,0,0,1-7,2A13.83,13.83,0,0,1,563.33,90.31Zm13.31-3.71a16.22,16.22,0,0,0,1.9-8.19,20.29,20.29,0,0,0-2.07-9.51,6.6,6.6,0,0,0-6.18-4,6.73,6.73,0,0,0-6.13,3.35,15.48,15.48,0,0,0-2.06,8.24,21.74,21.74,0,0,0,1,6.57A11.33,11.33,0,0,0,566,88a6.61,6.61,0,0,0,4.76,1.87A6.35,6.35,0,0,0,576.64,86.6Z"/><path class="cls-3" d="M32.38,342a6.8,6.8,0,0,1-2.9-3.79,21.09,21.09,0,0,1-.88-6.74v-6.7c0-1.41,0-2.68.13-3.83l-2.37.1v-1.41h7.39v1.08c-1,0-1.59.26-1.85.76a4,4,0,0,0-.4,1.85v8.31a20.72,20.72,0,0,0,.52,5A6.6,6.6,0,0,0,34,340a6.25,6.25,0,0,0,4.3,1.33,5.8,5.8,0,0,0,5.1-2.36,11.23,11.23,0,0,0,1.73-6.41l.1-9.27a23.26,23.26,0,0,1,.1-2.38l-2.34.14v-1.45h6.13v1.08a2.47,2.47,0,0,0-1.68.53,1.85,1.85,0,0,0-.56,1.17c0,.45-.07,1.24-.07,2.36l-.06,7.65a13.67,13.67,0,0,1-2.13,7.8c-1.4,2-3.65,3-6.75,3A10.5,10.5,0,0,1,32.38,342Z"/><path class="cls-3" d="M56.77,342.78a5.37,5.37,0,0,1-2.24-1.55l-.79,1.48H52.58l.07-20.61a18.63,18.63,0,0,1,.1-2.14l-2.35.13V318.7a11.64,11.64,0,0,0,2.82-.23,3,3,0,0,0,1.31-.66h.95v9.83a6.44,6.44,0,0,1,2.2-1.43,7.17,7.17,0,0,1,2.78-.52,7.35,7.35,0,0,1,3.83,1A7.08,7.08,0,0,1,67,329.65a9.62,9.62,0,0,1,1,4.42,9.47,9.47,0,0,1-1.19,4.82,8.47,8.47,0,0,1-3.16,3.21,8.33,8.33,0,0,1-4.22,1.14A7.64,7.64,0,0,1,56.77,342.78ZM63.15,340a8.38,8.38,0,0,0,1.4-5.06,10.36,10.36,0,0,0-1.28-5.53,4.2,4.2,0,0,0-3.8-2.06,5,5,0,0,0-2.16.51,5.79,5.79,0,0,0-1.83,1.37v8.35q0,4.35,3.9,4.35A4.41,4.41,0,0,0,63.15,340Z"/><path class="cls-3" d="M70.79,341.72a1.77,1.77,0,0,0,1.37-.47,2.2,2.2,0,0,0,.49-1.22,22.16,22.16,0,0,0,.08-2.33v-7.52a19.12,19.12,0,0,1,.14-2.14l-2.35.13v-1.39a11.46,11.46,0,0,0,2.79-.23,3,3,0,0,0,1.3-.66h1v13.33a13.93,13.93,0,0,1-.13,2.24l2.08-.1v1.35H70.79Zm2-19.67a2,2,0,0,1,0-2.75,1.63,1.63,0,0,1,2.51,0,2,2,0,0,1,.51,1.4,1.89,1.89,0,0,1-.55,1.37,1.7,1.7,0,0,1-1.27.58A1.63,1.63,0,0,1,72.83,322.05Z"/><path class="cls-3" d="M84,342.22a7.47,7.47,0,0,1-3-2.94A9,9,0,0,1,80,334.76a9.29,9.29,0,0,1,1.1-4.4A9,9,0,0,1,84.13,327a7.9,7.9,0,0,1,4.43-1.29,8.46,8.46,0,0,1,3.17.56,5.4,5.4,0,0,1,2.16,1.49,3,3,0,0,1,.78,2,1.86,1.86,0,0,1-.43,1.25,1.5,1.5,0,0,1-1.19.5A1.28,1.28,0,0,1,92,331a1.64,1.64,0,0,1-.36-1,1.77,1.77,0,0,1,.49-1.31,2.21,2.21,0,0,0-1.4-1.41,6,6,0,0,0-2.06-.38,4.7,4.7,0,0,0-2.72.83,5.56,5.56,0,0,0-1.9,2.41,9.43,9.43,0,0,0-.69,3.79,10.23,10.23,0,0,0,.71,3.92,6.23,6.23,0,0,0,2,2.69,4.75,4.75,0,0,0,3,1,5.86,5.86,0,0,0,2.92-.81,6.56,6.56,0,0,0,2.26-2l.86.66a8,8,0,0,1-3.15,2.9,8.27,8.27,0,0,1-3.78,1A8.39,8.39,0,0,1,84,342.22Z"/><path class="cls-3" d="M98.48,342.15a3.53,3.53,0,0,1-1.27-2.83,4.12,4.12,0,0,1,1.53-3.24,9.84,9.84,0,0,1,3.86-2,16.56,16.56,0,0,1,4.67-.61v-2a7.32,7.32,0,0,0-.63-3.35,2.74,2.74,0,0,0-2.67-1.21,4.7,4.7,0,0,0-2,.43,2.82,2.82,0,0,0-1.35,1.29,1.74,1.74,0,0,1,.43,1.25,1.46,1.46,0,0,1-.36.94,1.3,1.3,0,0,1-1.06.45,1.39,1.39,0,0,1-1.09-.45,1.69,1.69,0,0,1-.39-1.17,2.87,2.87,0,0,1,.84-2,5.63,5.63,0,0,1,2.34-1.44,10.06,10.06,0,0,1,3.35-.53,5.24,5.24,0,0,1,4.09,1.47c.88,1,1.3,2.53,1.28,4.64l0,7.42a19.82,19.82,0,0,1-.13,2.24l2.34-.13v1.38h-4.72c-.06-.33-.14-.95-.23-1.88a7.22,7.22,0,0,1-5.18,2.41A5.45,5.45,0,0,1,98.48,342.15Zm6.71-1.27a8.53,8.53,0,0,0,2.08-1.46c0-.33,0-.9,0-1.69l0-3.1a12.2,12.2,0,0,0-4.82,1.11,3.26,3.26,0,0,0-2.11,3.08,2.38,2.38,0,0,0,.73,1.88,2.61,2.61,0,0,0,1.84.66A5.29,5.29,0,0,0,105.19,340.88Z"/><path class="cls-3" d="M118.5,342.22a7.47,7.47,0,0,1-3-2.94,9,9,0,0,1-1.08-4.52,9.29,9.29,0,0,1,1.1-4.4,9,9,0,0,1,3.07-3.38,7.9,7.9,0,0,1,4.43-1.29,8.46,8.46,0,0,1,3.17.56,5.4,5.4,0,0,1,2.16,1.49,3,3,0,0,1,.78,2,1.86,1.86,0,0,1-.43,1.25,1.5,1.5,0,0,1-1.19.5,1.28,1.28,0,0,1-1.09-.48,1.64,1.64,0,0,1-.36-1,1.77,1.77,0,0,1,.49-1.31,2.21,2.21,0,0,0-1.4-1.41,6,6,0,0,0-2.06-.38,4.7,4.7,0,0,0-2.72.83,5.56,5.56,0,0,0-1.9,2.41,9.43,9.43,0,0,0-.69,3.79,10.23,10.23,0,0,0,.71,3.92,6.23,6.23,0,0,0,2,2.69,4.75,4.75,0,0,0,3,1,5.86,5.86,0,0,0,2.92-.81,6.56,6.56,0,0,0,2.26-2l.86.66a8,8,0,0,1-3.15,2.9,8.27,8.27,0,0,1-3.78,1A8.39,8.39,0,0,1,118.5,342.22Z"/><path class="cls-3" d="M132.1,341.72a1.74,1.74,0,0,0,1.37-.47A2.21,2.21,0,0,0,134,340c.05-.5.08-1.27.08-2.33v-7.52a18.94,18.94,0,0,1,.13-2.14l-2.34.13v-1.39a11.51,11.51,0,0,0,2.79-.23,3,3,0,0,0,1.3-.66h1v13.33a13.69,13.69,0,0,1-.14,2.24l2.08-.1v1.35H132.1Zm2.05-19.67a2,2,0,0,1,0-2.75,1.66,1.66,0,0,1,1.24-.6,1.61,1.61,0,0,1,1.27.58,2,2,0,0,1,.51,1.4,1.93,1.93,0,0,1-.54,1.37,1.73,1.73,0,0,1-1.27.58A1.63,1.63,0,0,1,134.15,322.05Z"/><path class="cls-3" d="M145.38,342.17a7.77,7.77,0,0,1-3-3,8.42,8.42,0,0,1-1.11-4.32,9.88,9.88,0,0,1,1.09-4.66,8.43,8.43,0,0,1,3-3.3,7.74,7.74,0,0,1,4.21-1.21,8.27,8.27,0,0,1,7.21,4.13,8.39,8.39,0,0,1,1.1,4.25,9.9,9.9,0,0,1-1.1,4.62,8.64,8.64,0,0,1-3,3.33,7.67,7.67,0,0,1-4.21,1.22A8.35,8.35,0,0,1,145.38,342.17Zm8-2.23A9.69,9.69,0,0,0,154.5,335a12.19,12.19,0,0,0-1.24-5.71,4,4,0,0,0-3.71-2.37,4.05,4.05,0,0,0-3.68,2,9.32,9.32,0,0,0-1.23,5,13.21,13.21,0,0,0,.57,3.94A6.91,6.91,0,0,0,147,340.8a4,4,0,0,0,2.85,1.12A3.81,3.81,0,0,0,153.36,339.94Zm-1.86-19.85a2.13,2.13,0,0,0,.69-1.42,1.24,1.24,0,0,0-.4-.92,1.37,1.37,0,0,0-.79-.27,1.73,1.73,0,0,0-1.35.89l-2.77,4.45.92.76Z"/><path class="cls-3" d="M160.67,341.72a1.73,1.73,0,0,0,1.36-.47,2,2,0,0,0,.48-1.19c.05-.47.08-1.26.1-2.36l0-7.52a12.83,12.83,0,0,1,.14-2.14l-2.35.13v-1.39a11.33,11.33,0,0,0,2.68-.21,3,3,0,0,0,1.22-.68h.95c.05.42.09,1.09.13,2a9.46,9.46,0,0,1,2.56-1.6,7.32,7.32,0,0,1,2.82-.61,4.85,4.85,0,0,1,4.19,1.8q1.32,1.8,1.32,5.59v6.14a15.21,15.21,0,0,1-.13,2.24l2.08-.1v1.35h-6.73v-1a1.77,1.77,0,0,0,1.37-.47,2.2,2.2,0,0,0,.49-1.22c.05-.5.08-1.27.08-2.33v-4.62a8.44,8.44,0,0,0-.92-4.27,3,3,0,0,0-2.8-1.43,5.09,5.09,0,0,0-2.36.59,5.7,5.7,0,0,0-1.93,1.55q0,.36,0,1.29l0,8.41a15.21,15.21,0,0,1-.13,2.24l2.07-.1v1.35h-6.72Z"/><path class="cls-3" d="M289.64,321a2.37,2.37,0,0,0,1.65-.53,1.85,1.85,0,0,0,.56-1.17c0-.45.07-1.24.07-2.36V302.66a23,23,0,0,1,.1-2.37l-2.38.13V299c3.08,0,5.53-.07,7.36-.07,3.28,0,5.76.58,7.44,1.72a5.7,5.7,0,0,1,2.52,5,7.27,7.27,0,0,1-1,3.67,7.58,7.58,0,0,1-3.47,2.9,15.47,15.47,0,0,1-6.51,1.15c-.51,0-.9,0-1.19,0v4.78a23.77,23.77,0,0,1-.1,2.61l3-.17v1.49h-8.09Zm10.74-9.62a5.78,5.78,0,0,0,2.47-2.14,5.86,5.86,0,0,0,.91-3.28,5.14,5.14,0,0,0-1.81-4.36,8.12,8.12,0,0,0-5-1.38,2.11,2.11,0,0,0-1.56.46,1.79,1.79,0,0,0-.51,1.11c-.05.42-.07,1.21-.07,2.35V312a20.06,20.06,0,0,0,2.14.1A7.86,7.86,0,0,0,300.38,311.35Z"/><path class="cls-3" d="M312.81,321.51a7.47,7.47,0,0,1-2.88-3.06,9.77,9.77,0,0,1-1.06-4.61,9.3,9.3,0,0,1,1.06-4.33,8.33,8.33,0,0,1,2.95-3.25,7.75,7.75,0,0,1,4.31-1.22,7,7,0,0,1,3.39.82,6,6,0,0,1,2.41,2.46,8.31,8.31,0,0,1,.89,4l-11.61.19a11.78,11.78,0,0,0,1.3,6.17,4.48,4.48,0,0,0,4.14,2.21,7,7,0,0,0,3.12-.79,6.64,6.64,0,0,0,2.46-1.94l.79.65a7.66,7.66,0,0,1-3.25,2.84,9.18,9.18,0,0,1-3.91.92A8,8,0,0,1,312.81,321.51Zm8-10.37a6.31,6.31,0,0,0-.89-3.4,3,3,0,0,0-2.67-1.42c-2.73,0-4.34,1.61-4.85,4.82Z"/><path class="cls-3" d="M326.82,321.07a1.74,1.74,0,0,0,1.37-.48,2.2,2.2,0,0,0,.49-1.22c.05-.5.08-1.27.08-2.33v-7.52a14.36,14.36,0,0,1,.13-2.14l-2.34.1v-1.35h1a5.29,5.29,0,0,0,1.81-.22,3.33,3.33,0,0,0,1.05-.67h1c.09.85.14,1.94.17,3.26a8.12,8.12,0,0,1,2.35-2.41,5.6,5.6,0,0,1,3.19-1,2.51,2.51,0,0,1,1.65.53,1.85,1.85,0,0,1,.66,1.55,1.68,1.68,0,0,1-.42,1.05,1.39,1.39,0,0,1-1.17.53,1.45,1.45,0,0,1-1.18-.55,1.61,1.61,0,0,1-.37-1.3,4,4,0,0,0-2.52,1,8.16,8.16,0,0,0-2.16,2.64l0,8.11a13.84,13.84,0,0,1-.13,2.24l2.08-.1v1.36h-6.76Z"/><path class="cls-3" d="M345,322.17a8.54,8.54,0,0,1-2.21-1l.13,1.16h-1.38l-.2-5.68h1a4.87,4.87,0,0,0,2.53,4.08,4.94,4.94,0,0,0,4.88-.07,2.12,2.12,0,0,0,1.1-1.93,2.31,2.31,0,0,0-.54-1.55,4.58,4.58,0,0,0-1.35-1c-.54-.27-1.29-.6-2.26-1a22.23,22.23,0,0,1-2.81-1.24,5.72,5.72,0,0,1-1.81-1.56,4,4,0,0,1-.76-2.51,5,5,0,0,1,.53-2.18,4.41,4.41,0,0,1,1.78-1.84A6.36,6.36,0,0,1,347,305a7.17,7.17,0,0,1,2.1.33,5.73,5.73,0,0,1,2,1.09L351,305.2h1.38V311h-1.05a5.8,5.8,0,0,0-1.18-3.31,4,4,0,0,0-5.37-.66,2.26,2.26,0,0,0-.88,1.76,2.4,2.4,0,0,0,.58,1.62A5.1,5.1,0,0,0,346,311.5a20.19,20.19,0,0,0,2.3,1,27.51,27.51,0,0,1,2.78,1.29,5.85,5.85,0,0,1,1.79,1.57,3.74,3.74,0,0,1,.75,2.36,4.36,4.36,0,0,1-.81,2.67,5,5,0,0,1-2.11,1.63,7.22,7.22,0,0,1-2.79.54A9.15,9.15,0,0,1,345,322.17Z"/><path class="cls-3" d="M360.38,321.51a7.81,7.81,0,0,1-3-3,8.47,8.47,0,0,1-1.11-4.32,9.92,9.92,0,0,1,1.09-4.67,8.36,8.36,0,0,1,3-3.3,7.73,7.73,0,0,1,4.21-1.2,8.23,8.23,0,0,1,7.21,4.12,8.42,8.42,0,0,1,1.1,4.26,9.83,9.83,0,0,1-1.1,4.61,8.59,8.59,0,0,1-3,3.33,7.53,7.53,0,0,1-4.2,1.22A8.25,8.25,0,0,1,360.38,321.51Zm8-2.22a9.73,9.73,0,0,0,1.14-4.92,12.24,12.24,0,0,0-1.24-5.7,4,4,0,0,0-3.71-2.38,4.05,4.05,0,0,0-3.68,2,9.32,9.32,0,0,0-1.24,4.95,13.17,13.17,0,0,0,.58,3.94,6.85,6.85,0,0,0,1.75,2.95,4,4,0,0,0,2.85,1.13A3.81,3.81,0,0,0,368.36,319.29Z"/><path class="cls-3" d="M375.66,321.07a1.71,1.71,0,0,0,1.37-.48,2,2,0,0,0,.48-1.19c.05-.47.08-1.26.1-2.36l0-7.52a14.36,14.36,0,0,1,.13-2.14l-2.34.13v-1.38a10.52,10.52,0,0,0,2.67-.22,3.05,3.05,0,0,0,1.23-.67h.95c.05.41.09,1.08.13,2a9.46,9.46,0,0,1,2.56-1.6,7.14,7.14,0,0,1,2.82-.61,4.85,4.85,0,0,1,4.19,1.8c.88,1.19,1.32,3.06,1.32,5.59v6.13a15.12,15.12,0,0,1-.13,2.24l2.07-.1v1.36h-6.72v-1a1.7,1.7,0,0,0,1.36-.48,2.21,2.21,0,0,0,.5-1.22c.05-.5.08-1.27.08-2.33v-4.61a8.48,8.48,0,0,0-.92-4.28,3.08,3.08,0,0,0-2.81-1.43,5.21,5.21,0,0,0-2.35.59,5.82,5.82,0,0,0-1.93,1.55c0,.25,0,.67,0,1.29l0,8.41a13.61,13.61,0,0,1-.14,2.24l2.08-.1v1.36h-6.73Z"/><path class="cls-3" d="M396.62,321.5a3.59,3.59,0,0,1-1.27-2.84,4.11,4.11,0,0,1,1.54-3.23,9.85,9.85,0,0,1,3.86-2,16.91,16.91,0,0,1,4.66-.61v-2a7.36,7.36,0,0,0-.62-3.35q-.63-1.2-2.67-1.2a4.51,4.51,0,0,0-1.95.43,2.68,2.68,0,0,0-1.35,1.28,1.81,1.81,0,0,1,.43,1.26,1.44,1.44,0,0,1-.37.94,1.29,1.29,0,0,1-1.05.44,1.4,1.4,0,0,1-1.09-.44,1.73,1.73,0,0,1-.4-1.17,2.86,2.86,0,0,1,.85-2,5.72,5.72,0,0,1,2.34-1.43,9.81,9.81,0,0,1,3.35-.53,5.22,5.22,0,0,1,4.08,1.47,6.68,6.68,0,0,1,1.29,4.63l0,7.42c0,.7-.05,1.45-.13,2.24l2.34-.13v1.39h-4.72c-.06-.33-.14-1-.23-1.88a7.25,7.25,0,0,1-5.18,2.4A5.55,5.55,0,0,1,396.62,321.5Zm6.72-1.27a8.11,8.11,0,0,0,2.07-1.47q0-.5,0-1.68l0-3.1a12,12,0,0,0-4.81,1.1,3.26,3.26,0,0,0-2.11,3.09,2.39,2.39,0,0,0,.72,1.87,2.61,2.61,0,0,0,1.85.66A5.32,5.32,0,0,0,403.34,320.23Z"/><path class="cls-3" d="M409,330.47a1.62,1.62,0,0,1-.66-1.32,1.6,1.6,0,0,1,.41-1.11,1.42,1.42,0,0,1,1.07-.44,1.24,1.24,0,0,1,1,.44,1.52,1.52,0,0,1,.35.94,1.1,1.1,0,0,1,0,.3,2.18,2.18,0,0,0,.85.2,1.81,1.81,0,0,0,1.32-.56c.64-.62,1-2,1-4l.07-15.37c0-.83,0-1.55.09-2.14l-2.34.13v-1.38a12.18,12.18,0,0,0,2.82-.23,3.28,3.28,0,0,0,1.31-.66h1v16.92q0,4.41-1.71,6.63A5.49,5.49,0,0,1,411,331,3.08,3.08,0,0,1,409,330.47Zm5.38-29.08a1.92,1.92,0,0,1-.53-1.37,2,2,0,0,1,.54-1.38,1.65,1.65,0,0,1,2.51,0,2.06,2.06,0,0,1,.51,1.4,1.93,1.93,0,0,1-.54,1.37,1.7,1.7,0,0,1-1.27.58A1.58,1.58,0,0,1,414.39,301.39Z"/><path class="cls-3" d="M423.77,321.51a7.56,7.56,0,0,1-2.89-3.06,9.76,9.76,0,0,1-1.05-4.61,9.29,9.29,0,0,1,1.05-4.33,8.41,8.41,0,0,1,2.95-3.25,7.75,7.75,0,0,1,4.31-1.22,7,7,0,0,1,3.4.82,5.93,5.93,0,0,1,2.4,2.46,8.2,8.2,0,0,1,.89,4l-11.6.19a11.68,11.68,0,0,0,1.3,6.17,4.48,4.48,0,0,0,4.14,2.21,6.93,6.93,0,0,0,3.11-.79,6.64,6.64,0,0,0,2.46-1.94l.79.65a7.6,7.6,0,0,1-3.25,2.84,9.17,9.17,0,0,1-3.9.92A7.93,7.93,0,0,1,423.77,321.51Zm8-10.37a6.22,6.22,0,0,0-.89-3.4,3,3,0,0,0-2.67-1.42q-4.08,0-4.85,4.82Z"/><path class="cls-3" d="M441.7,322.17a8.24,8.24,0,0,1-2.21-1l.13,1.16h-1.39l-.2-5.68h1a4.75,4.75,0,0,0,.74,2.41,4.84,4.84,0,0,0,1.78,1.67,4.94,4.94,0,0,0,4.88-.07,2.13,2.13,0,0,0,1.11-1.93,2.31,2.31,0,0,0-.55-1.55,4.58,4.58,0,0,0-1.35-1c-.54-.27-1.29-.6-2.26-1a21.38,21.38,0,0,1-2.8-1.24,5.65,5.65,0,0,1-1.82-1.56,4.05,4.05,0,0,1-.76-2.51,5,5,0,0,1,.53-2.18,4.47,4.47,0,0,1,1.78-1.84,6.36,6.36,0,0,1,3.33-.76,7.12,7.12,0,0,1,2.1.33,5.73,5.73,0,0,1,2,1.09l-.06-1.26h1.38V311H448a5.86,5.86,0,0,0-1.17-3.31,3.6,3.6,0,0,0-3-1.4,3.55,3.55,0,0,0-2.36.74,2.25,2.25,0,0,0-.87,1.76,2.39,2.39,0,0,0,.57,1.62,5.24,5.24,0,0,0,1.44,1.12,19.68,19.68,0,0,0,2.31,1,28.26,28.26,0,0,1,2.77,1.29,6,6,0,0,1,1.8,1.57,3.8,3.8,0,0,1,.74,2.36,4.36,4.36,0,0,1-.81,2.67,5,5,0,0,1-2.11,1.63,7.22,7.22,0,0,1-2.79.54A9,9,0,0,1,441.7,322.17Z"/><path class="cls-3" d="M292.37,360.65a1.7,1.7,0,0,0,1.36-.48,2.21,2.21,0,0,0,.5-1.22c0-.5.08-1.27.08-2.33V349.1a13.11,13.11,0,0,1,.13-2.14l-2.34.1v-1.35h1a5.62,5.62,0,0,0,1.82-.22,3.33,3.33,0,0,0,1.05-.67h1c.09.85.14,1.94.16,3.26a8.16,8.16,0,0,1,2.36-2.41,5.6,5.6,0,0,1,3.19-1.05,2.51,2.51,0,0,1,1.65.53,1.88,1.88,0,0,1,.65,1.55,1.67,1.67,0,0,1-.41,1.05,1.39,1.39,0,0,1-1.17.53,1.48,1.48,0,0,1-1.19-.55,1.64,1.64,0,0,1-.36-1.3,3.94,3.94,0,0,0-2.52,1,8.16,8.16,0,0,0-2.16,2.64l0,8.11a13.84,13.84,0,0,1-.13,2.24l2.08-.1v1.36h-6.76Z"/><path class="cls-3" d="M310.29,361.09a7.47,7.47,0,0,1-2.88-3.06,9.65,9.65,0,0,1-1.06-4.61,9.18,9.18,0,0,1,1.06-4.33,8.26,8.26,0,0,1,2.95-3.25,7.72,7.72,0,0,1,4.3-1.22,7,7,0,0,1,3.4.82,6,6,0,0,1,2.41,2.46,8.31,8.31,0,0,1,.89,4l-11.61.19a11.78,11.78,0,0,0,1.3,6.17,4.48,4.48,0,0,0,4.14,2.21,7,7,0,0,0,3.12-.79,6.79,6.79,0,0,0,2.45-1.94l.8.65a7.66,7.66,0,0,1-3.25,2.84,9.22,9.22,0,0,1-3.91.92A7.93,7.93,0,0,1,310.29,361.09Zm8-10.37a6.31,6.31,0,0,0-.89-3.4,3,3,0,0,0-2.67-1.42q-4.09,0-4.85,4.82Z"/><path class="cls-3" d="M324,360.65a1.71,1.71,0,0,0,1.37-.48,2.21,2.21,0,0,0,.5-1.22c.05-.5.08-1.27.08-2.33V341a18.74,18.74,0,0,1,.1-2.14l-2.34.13v-1.38a11.51,11.51,0,0,0,2.82-.24,3,3,0,0,0,1.3-.66h1l0,21.41a13.19,13.19,0,0,1-.17,2.24l2.08-.1v1.36H324Z"/><path class="cls-3" d="M337.14,361.09a7.56,7.56,0,0,1-2.89-3.06,9.76,9.76,0,0,1-1.05-4.61,9.29,9.29,0,0,1,1.05-4.33,8.36,8.36,0,0,1,3-3.25,7.69,7.69,0,0,1,4.3-1.22,7,7,0,0,1,3.4.82,5.93,5.93,0,0,1,2.4,2.46,8.2,8.2,0,0,1,.9,4l-11.61.19a11.68,11.68,0,0,0,1.3,6.17,4.48,4.48,0,0,0,4.14,2.21,6.93,6.93,0,0,0,3.11-.79,6.74,6.74,0,0,0,2.46-1.94l.79.65a7.6,7.6,0,0,1-3.25,2.84,9.17,9.17,0,0,1-3.9.92A7.93,7.93,0,0,1,337.14,361.09Zm8-10.37a6.23,6.23,0,0,0-.9-3.4,3,3,0,0,0-2.67-1.42q-4.08,0-4.85,4.82Z"/><path class="cls-3" d="M352.53,351a14.65,14.65,0,0,1-1.39-4.58l-1.42.1v-1.35h6.07v1c-1,0-1.45.41-1.45,1.22a6.57,6.57,0,0,0,.69,2.45l2.54,5.8c.29.68.62,1.5,1,2.44h0a5.83,5.83,0,0,1,.26-.72l.49-1.42,2.64-7.23a19.93,19.93,0,0,1,1-2.27l-2.11.1v-1.35h5.21v1a1.63,1.63,0,0,0-1.18.48A4.61,4.61,0,0,0,364,348q-.42.85-1.11,2.64l-4.32,11.15h-1.32Z"/><path class="cls-3" d="M368.24,361.08a3.59,3.59,0,0,1-1.27-2.84,4.08,4.08,0,0,1,1.54-3.23,9.85,9.85,0,0,1,3.86-2,16.91,16.91,0,0,1,4.66-.61v-2a7.46,7.46,0,0,0-.62-3.35c-.42-.8-1.31-1.2-2.68-1.2a4.47,4.47,0,0,0-1.94.43,2.68,2.68,0,0,0-1.35,1.28,1.81,1.81,0,0,1,.43,1.26,1.49,1.49,0,0,1-.37.94,1.29,1.29,0,0,1-1.05.44,1.39,1.39,0,0,1-1.09-.44,1.68,1.68,0,0,1-.4-1.17,2.89,2.89,0,0,1,.84-2,5.69,5.69,0,0,1,2.35-1.43,9.79,9.79,0,0,1,3.34-.53,5.26,5.26,0,0,1,4.09,1.46,6.72,6.72,0,0,1,1.29,4.64l0,7.42a19.93,19.93,0,0,1-.14,2.24l2.35-.13v1.39h-4.72c-.07-.33-.14-1-.23-1.88a7.27,7.27,0,0,1-5.18,2.4A5.53,5.53,0,0,1,368.24,361.08Zm6.72-1.27a8.11,8.11,0,0,0,2.07-1.47q0-.49,0-1.68l0-3.1a12,12,0,0,0-4.81,1.1,3.26,3.26,0,0,0-2.11,3.09,2.43,2.43,0,0,0,.72,1.88,2.69,2.69,0,0,0,1.85.65A5.35,5.35,0,0,0,375,359.81Z"/><path class="cls-3" d="M384.32,360.65a1.71,1.71,0,0,0,1.37-.48,2.06,2.06,0,0,0,.48-1.19c0-.47.08-1.26.1-2.36l0-7.52a13.11,13.11,0,0,1,.13-2.14l-2.34.13v-1.38a11,11,0,0,0,2.67-.22,3,3,0,0,0,1.22-.67h1c0,.41.09,1.08.13,2a9.22,9.22,0,0,1,2.56-1.6,7.07,7.07,0,0,1,2.82-.61,4.85,4.85,0,0,1,4.19,1.8c.88,1.19,1.32,3.06,1.32,5.59v6.13a13.61,13.61,0,0,1-.14,2.24l2.08-.1v1.36h-6.73v-1a1.71,1.71,0,0,0,1.37-.48A2.21,2.21,0,0,0,397,359c0-.5.08-1.27.08-2.33V352a8.45,8.45,0,0,0-.92-4.28,3.08,3.08,0,0,0-2.81-1.43,5.25,5.25,0,0,0-2.36.59,5.93,5.93,0,0,0-1.93,1.55,12.79,12.79,0,0,1,0,1.29l0,8.41a13.84,13.84,0,0,1-.13,2.24l2.08-.1v1.36h-6.73Z"/><path class="cls-3" d="M405.76,356.1l.07-9.57-2.54,0v-1.41a3.44,3.44,0,0,0,2.69-1.44,9.5,9.5,0,0,0,1.63-3.18h1.12v4.62h5.54v1.28l-5.54.07q0,5-.05,7c0,1.3,0,2,0,2.18a8.3,8.3,0,0,0,.56,3.48,2,2,0,0,0,1.95,1.13,3.18,3.18,0,0,0,1.7-.52,5.06,5.06,0,0,0,1.47-1.45l.89.72a7.06,7.06,0,0,1-2.54,2.52,5.53,5.53,0,0,1-2.44.61C407.23,362.16,405.74,360.14,405.76,356.1Z"/><path class="cls-3" d="M420.69,361.09A7.5,7.5,0,0,1,417.8,358a9.77,9.77,0,0,1-1.06-4.61,9.3,9.3,0,0,1,1.06-4.33,8.33,8.33,0,0,1,2.95-3.25,7.75,7.75,0,0,1,4.31-1.22,7,7,0,0,1,3.39.82,6,6,0,0,1,2.41,2.46,8.2,8.2,0,0,1,.89,4l-11.61.19a11.78,11.78,0,0,0,1.3,6.17,4.49,4.49,0,0,0,4.14,2.21,7,7,0,0,0,3.12-.79,6.74,6.74,0,0,0,2.46-1.94l.79.65a7.66,7.66,0,0,1-3.25,2.84,9.18,9.18,0,0,1-3.91.92A7.92,7.92,0,0,1,420.69,361.09Zm8-10.37a6.31,6.31,0,0,0-.89-3.4,3,3,0,0,0-2.67-1.42c-2.73,0-4.34,1.61-4.85,4.82Z"/><path class="cls-3" d="M438.61,361.75a8.38,8.38,0,0,1-2.21-1l.13,1.16h-1.38l-.2-5.68h1a4.76,4.76,0,0,0,.75,2.41,4.92,4.92,0,0,0,4.13,2.28,4.77,4.77,0,0,0,2.53-.68,2.14,2.14,0,0,0,1.1-1.93,2.31,2.31,0,0,0-.54-1.55,4.42,4.42,0,0,0-1.35-1c-.54-.27-1.3-.6-2.26-1a22.23,22.23,0,0,1-2.81-1.24,5.72,5.72,0,0,1-1.81-1.56,4,4,0,0,1-.76-2.51,5,5,0,0,1,.53-2.18,4.41,4.41,0,0,1,1.78-1.84,6.36,6.36,0,0,1,3.33-.76,7.17,7.17,0,0,1,2.1.33,5.82,5.82,0,0,1,2,1.09l-.06-1.26H446v5.77h-1.06a5.72,5.72,0,0,0-1.17-3.31,3.58,3.58,0,0,0-3-1.4,3.5,3.5,0,0,0-2.36.74,2.22,2.22,0,0,0-.88,1.76,2.4,2.4,0,0,0,.58,1.62,5.1,5.1,0,0,0,1.44,1.12,20.19,20.19,0,0,0,2.3,1,27.51,27.51,0,0,1,2.78,1.29,5.85,5.85,0,0,1,1.79,1.57,3.74,3.74,0,0,1,.74,2.36,4.36,4.36,0,0,1-.8,2.67,5,5,0,0,1-2.11,1.63,7.22,7.22,0,0,1-2.79.54A9.15,9.15,0,0,1,438.61,361.75Z"/><path class="cls-3" d="M419.82,618.28q-2.51-5.58-3.89-8.79t-2.71-6.78l0,1.45q-.3,9.66-.37,13.79a6.09,6.09,0,0,1,0,.72,19.21,19.21,0,0,1-.1,2.08l2.48-.13v1.45h-6.3V621a1.93,1.93,0,0,0,1.79-.77,5.18,5.18,0,0,0,.48-2.26l.73-17.65-2.38.1V599h5.05L419,609.34q2.43,5.74,3.76,8.71h.06q.4-1,1.68-4.26t2.87-7c1.26-2.94,2.33-5.56,3.24-7.85h4.88v1.09a2.07,2.07,0,0,0-1.75.64,3.69,3.69,0,0,0-.56,2.3l0,.66.86,15c0,.51.07,1.19.07,2.05l2.4-.1v1.45h-7.39V621a2,2,0,0,0,1.75-.74,4.15,4.15,0,0,0,.46-2.23c0-.41,0-.73,0-1l-.86-14q-.06.16-.18.42c-.07.18-.16.39-.24.63l-7.43,18.34h-1Z"/><path class="cls-3" d="M440.09,621.51a3.55,3.55,0,0,1-1.27-2.84,4.11,4.11,0,0,1,1.53-3.23,9.84,9.84,0,0,1,3.86-2,16.56,16.56,0,0,1,4.67-.61v-2a7.27,7.27,0,0,0-.63-3.34c-.42-.81-1.31-1.21-2.67-1.21a4.7,4.7,0,0,0-1.95.43,2.78,2.78,0,0,0-1.35,1.29,1.77,1.77,0,0,1,.43,1.25,1.48,1.48,0,0,1-.36.94,1.3,1.3,0,0,1-1.06.45,1.37,1.37,0,0,1-1.09-.45,1.72,1.72,0,0,1-.39-1.17,2.89,2.89,0,0,1,.84-2,5.72,5.72,0,0,1,2.34-1.43,10.06,10.06,0,0,1,3.35-.53,5.24,5.24,0,0,1,4.09,1.47c.88,1,1.3,2.52,1.28,4.63l0,7.42a22.5,22.5,0,0,1-.13,2.25l2.34-.14v1.39h-4.72c-.06-.33-.14-1-.23-1.88a7.22,7.22,0,0,1-5.18,2.41A5.45,5.45,0,0,1,440.09,621.51Zm6.71-1.27a8.32,8.32,0,0,0,2.08-1.47c0-.33,0-.89,0-1.68l0-3.1a12.2,12.2,0,0,0-4.82,1.1,3.27,3.27,0,0,0-2.11,3.09,2.43,2.43,0,0,0,.72,1.88,2.65,2.65,0,0,0,1.85.66A5.29,5.29,0,0,0,446.8,620.24Z"/><path class="cls-3" d="M455.87,629.49a1.73,1.73,0,0,0,1.37-.48,2,2,0,0,0,.47-1.18c.05-.48.08-1.26.1-2.36l.07-15.93a13.17,13.17,0,0,1,.13-2.15l-2.34.13v-1.38a10.52,10.52,0,0,0,2.67-.22,2.73,2.73,0,0,0,1.19-.67h1c.09,1.08.13,1.67.13,1.78a7.92,7.92,0,0,1,2.38-1.44,7.45,7.45,0,0,1,2.73-.54,6.8,6.8,0,0,1,3.6,1,7.3,7.3,0,0,1,2.65,2.87,8.9,8.9,0,0,1,1,4.3,10,10,0,0,1-1.16,4.87,8.63,8.63,0,0,1-3.08,3.31,7.85,7.85,0,0,1-4.17,1.19,7.09,7.09,0,0,1-4-1.09V627a14.07,14.07,0,0,1-.13,2.25l2.08-.1v1.35h-6.73Zm11.36-9.17a6.2,6.2,0,0,0,1.77-2.67,11.46,11.46,0,0,0,.62-3.89,9.37,9.37,0,0,0-1.27-5,4.12,4.12,0,0,0-3.77-2.06,4.5,4.5,0,0,0-2.12.53,6.89,6.89,0,0,0-1.78,1.31c0,.16,0,.83,0,2l0,9.46a6.17,6.17,0,0,0,3.86,1.29A4,4,0,0,0,467.23,620.32Z"/><path class="cls-3" d="M476.79,621.51a3.58,3.58,0,0,1-1.26-2.84,4.11,4.11,0,0,1,1.53-3.23,9.84,9.84,0,0,1,3.86-2,16.54,16.54,0,0,1,4.66-.61v-2a7.28,7.28,0,0,0-.62-3.34c-.42-.81-1.31-1.21-2.67-1.21a4.66,4.66,0,0,0-2,.43A2.78,2.78,0,0,0,479,608a1.77,1.77,0,0,1,.43,1.25,1.44,1.44,0,0,1-.37.94,1.27,1.27,0,0,1-1.05.45,1.37,1.37,0,0,1-1.09-.45,1.73,1.73,0,0,1-.4-1.17,2.86,2.86,0,0,1,.85-2,5.72,5.72,0,0,1,2.34-1.43,10.06,10.06,0,0,1,3.35-.53,5.24,5.24,0,0,1,4.09,1.47,6.74,6.74,0,0,1,1.28,4.63l0,7.42a22.5,22.5,0,0,1-.13,2.25l2.34-.14v1.39h-4.72c-.06-.33-.14-1-.23-1.88a7.22,7.22,0,0,1-5.18,2.41A5.5,5.5,0,0,1,476.79,621.51Zm6.72-1.27a8.11,8.11,0,0,0,2.07-1.47q0-.49,0-1.68l0-3.1a12.19,12.19,0,0,0-4.81,1.1,3.27,3.27,0,0,0-2.11,3.09,2.43,2.43,0,0,0,.72,1.88,2.65,2.65,0,0,0,1.85.66A5.29,5.29,0,0,0,483.51,620.24Z"/><path class="cls-3" d="M505,621.58a7,7,0,0,1-2.54-2.91,9.74,9.74,0,0,1-.93-4.38,10.14,10.14,0,0,1,1.09-4.75,8.09,8.09,0,0,1,7.39-4.49,8.07,8.07,0,0,1,2.09.28,8.67,8.67,0,0,1,1.77.64v-4.51a18.93,18.93,0,0,1,.1-2.15l-2.35.13v-1.38a12,12,0,0,0,2.79-.23,3.17,3.17,0,0,0,1.3-.66h1v21.4a19.86,19.86,0,0,1-.13,2.25l2.34-.14v1.39h-4.72c-.11-.59-.18-1.16-.23-1.71a6.56,6.56,0,0,1-2.32,1.64,7.27,7.27,0,0,1-2.95.6A6.68,6.68,0,0,1,505,621.58Zm7-1.21a6.19,6.19,0,0,0,1.87-1.57c0-.35,0-.95,0-1.81l0-9.5a6,6,0,0,0-3.66-1.15,4.53,4.53,0,0,0-3.83,2,8.53,8.53,0,0,0-1.45,5.2,10.09,10.09,0,0,0,1.29,5.42,4,4,0,0,0,3.62,2.06A4.38,4.38,0,0,0,512,620.37Z"/><path class="cls-3" d="M525.15,621.53a7.58,7.58,0,0,1-2.89-3.07,9.75,9.75,0,0,1-1-4.6,9.3,9.3,0,0,1,1-4.34,8.4,8.4,0,0,1,3-3.25,7.83,7.83,0,0,1,4.31-1.22,7,7,0,0,1,3.39.83,5.87,5.87,0,0,1,2.41,2.45,8.23,8.23,0,0,1,.89,4l-11.61.2a11.79,11.79,0,0,0,1.31,6.17,4.5,4.5,0,0,0,4.13,2.21,7,7,0,0,0,3.12-.8,6.54,6.54,0,0,0,2.46-1.94l.79.66a7.65,7.65,0,0,1-3.25,2.83,9.2,9.2,0,0,1-3.91.93A8,8,0,0,1,525.15,621.53Zm8-10.38a6.16,6.16,0,0,0-.89-3.39,2.93,2.93,0,0,0-2.67-1.42c-2.73,0-4.34,1.6-4.85,4.81Z"/><path class="cls-3" d="M538.82,621.08a1.73,1.73,0,0,0,1.37-.48,2.17,2.17,0,0,0,.49-1.22,21.94,21.94,0,0,0,.08-2.32v-15.6c0-.84,0-1.55.1-2.15l-2.34.13v-1.38a12.18,12.18,0,0,0,2.82-.23,3.17,3.17,0,0,0,1.3-.66h1l0,21.4a13.49,13.49,0,0,1-.16,2.25l2.08-.1v1.35h-6.73Z"/><path class="cls-3" d="M560.72,622.19a8.89,8.89,0,0,1-2.21-1l.13,1.15h-1.38l-.2-5.67h1a4.81,4.81,0,0,0,.74,2.41,5,5,0,0,0,1.78,1.66,5,5,0,0,0,4.89-.06,2.15,2.15,0,0,0,1.1-1.93,2.27,2.27,0,0,0-.54-1.55,4.43,4.43,0,0,0-1.36-1c-.54-.28-1.29-.6-2.26-1a23.71,23.71,0,0,1-2.8-1.23,5.77,5.77,0,0,1-1.81-1.57,4,4,0,0,1-.76-2.51,4.82,4.82,0,0,1,.53-2.17,4.43,4.43,0,0,1,1.78-1.85,6.32,6.32,0,0,1,3.33-.76,7.05,7.05,0,0,1,2.09.33,5.77,5.77,0,0,1,2,1.09l-.07-1.25h1.39V611h-1.06a5.82,5.82,0,0,0-1.17-3.32,4,4,0,0,0-5.38-.66,2.27,2.27,0,0,0-.87,1.77,2.31,2.31,0,0,0,.58,1.61,5.07,5.07,0,0,0,1.43,1.13,23.73,23.73,0,0,0,2.31,1,25.38,25.38,0,0,1,2.77,1.28,5.89,5.89,0,0,1,1.8,1.57,3.82,3.82,0,0,1,.74,2.36,4.34,4.34,0,0,1-.81,2.67,4.88,4.88,0,0,1-2.11,1.63,7,7,0,0,1-2.78.55A9.41,9.41,0,0,1,560.72,622.19Z"/><path class="cls-3" d="M572.06,621.08a1.71,1.71,0,0,0,1.37-.48,2.18,2.18,0,0,0,.5-1.22c.05-.49.08-1.27.08-2.32v-7.52a19.1,19.1,0,0,1,.13-2.15l-2.34.13v-1.38a12,12,0,0,0,2.79-.23,3.11,3.11,0,0,0,1.3-.66h1v13.32a13.83,13.83,0,0,1-.14,2.25l2.08-.1v1.35h-6.73Zm2.05-19.67a2,2,0,0,1,0-2.76,1.64,1.64,0,0,1,1.23-.59,1.61,1.61,0,0,1,1.27.58,2,2,0,0,1,.51,1.4,1.94,1.94,0,0,1-.54,1.37,1.71,1.71,0,0,1-1.27.57A1.62,1.62,0,0,1,574.11,601.41Z"/><path class="cls-3" d="M583.58,616.53l.06-9.57-2.54,0v-1.42a3.4,3.4,0,0,0,2.69-1.44,9.23,9.23,0,0,0,1.63-3.18h1.12v4.62h5.54v1.29l-5.54.06c0,3.36,0,5.7,0,7s0,2,0,2.18a8.3,8.3,0,0,0,.56,3.48,2,2,0,0,0,1.94,1.14,3.17,3.17,0,0,0,1.7-.53,5.06,5.06,0,0,0,1.47-1.45l.89.72A7.11,7.11,0,0,1,590.5,622a5.64,5.64,0,0,1-2.44.61C585.05,622.6,583.55,620.58,583.58,616.53Z"/><path class="cls-3" d="M594.62,621.08a1.71,1.71,0,0,0,1.37-.48,2.18,2.18,0,0,0,.5-1.22c0-.49.08-1.27.08-2.32v-7.52a19.1,19.1,0,0,1,.13-2.15l-2.34.13v-1.38a12,12,0,0,0,2.79-.23,3.11,3.11,0,0,0,1.3-.66h1v13.32a13.83,13.83,0,0,1-.14,2.25l2.08-.1v1.35h-6.73Zm2-19.67a2,2,0,0,1,0-2.76,1.64,1.64,0,0,1,1.23-.59,1.61,1.61,0,0,1,1.27.58,2,2,0,0,1,.51,1.4,1.94,1.94,0,0,1-.54,1.37,1.71,1.71,0,0,1-1.27.57A1.62,1.62,0,0,1,596.67,601.41Z"/><path class="cls-3" d="M607.9,621.53a7.9,7.9,0,0,1-3-3,8.42,8.42,0,0,1-1.11-4.32,10,10,0,0,1,1.09-4.67,8.52,8.52,0,0,1,3-3.3,7.67,7.67,0,0,1,4.2-1.2,8.18,8.18,0,0,1,4.19,1.11,8.08,8.08,0,0,1,3,3,8.35,8.35,0,0,1,1.1,4.26,9.78,9.78,0,0,1-1.1,4.62,8.79,8.79,0,0,1-3,3.33,7.67,7.67,0,0,1-4.21,1.22A8.38,8.38,0,0,1,607.9,621.53Zm8-2.23a9.73,9.73,0,0,0,1.14-4.92,12.12,12.12,0,0,0-1.24-5.7,4,4,0,0,0-3.71-2.38,4.07,4.07,0,0,0-3.68,2,9.31,9.31,0,0,0-1.23,4.94,12.92,12.92,0,0,0,.58,4,6.8,6.8,0,0,0,1.74,2.95,4,4,0,0,0,2.86,1.12A3.8,3.8,0,0,0,615.88,619.3Z"/><path class="cls-3" d="M417.82,670.06a1.76,1.76,0,0,1-.69-1.48,1.63,1.63,0,0,1,.41-1.11,1.34,1.34,0,0,1,1.07-.48,1.08,1.08,0,0,1,1,.47,1.64,1.64,0,0,1,.32.95,2.69,2.69,0,0,1,0,.46.61.61,0,0,0,.36.07,1.46,1.46,0,0,0,.87-.33,3,3,0,0,0,.81-1,36.68,36.68,0,0,0,2.31-5.64l-5.15-11a25.41,25.41,0,0,1-1.74-4.55l-1.59.06v-1.35h6.83v1h-.13c-1,.06-1.55.5-1.55,1.32a7.11,7.11,0,0,0,.79,2.57l3.86,8.28c.66-1.87,1.6-4.63,2.84-8.28.74-2.18,1.28-3.4,1.61-3.66l-2.27.13v-1.35h5.17v1a3.48,3.48,0,0,0-1.73,1.37,14.83,14.83,0,0,0-1.33,2.92L425.7,662c-.79,2.22-1.44,3.89-2,5a8.9,8.9,0,0,1-1.75,2.65,3.27,3.27,0,0,1-2.39,1A2.87,2.87,0,0,1,417.82,670.06Z"/><path class="cls-3" d="M443.15,660.66a1.73,1.73,0,0,0,1.37-.48A2.17,2.17,0,0,0,445,659a21.31,21.31,0,0,0,.09-2.32v-7.52a13.17,13.17,0,0,1,.13-2.15l-2.34.1v-1.35h1a5.25,5.25,0,0,0,1.81-.22,3.11,3.11,0,0,0,1.06-.67h1c.08.86.14,1.95.16,3.26a8,8,0,0,1,2.36-2.4,5.48,5.48,0,0,1,3.18-1.06,2.57,2.57,0,0,1,1.65.53,1.87,1.87,0,0,1,.66,1.55,1.72,1.72,0,0,1-.41,1,1.39,1.39,0,0,1-1.17.53,1.49,1.49,0,0,1-1.19-.54,1.59,1.59,0,0,1-.36-1.3,3.89,3.89,0,0,0-2.53.95,8.42,8.42,0,0,0-2.16,2.64l0,8.11a13.83,13.83,0,0,1-.14,2.25l2.08-.1v1.35h-6.76Z"/><path class="cls-3" d="M461.08,661.11a7.65,7.65,0,0,1-2.89-3.07,9.75,9.75,0,0,1-1.05-4.6,9.3,9.3,0,0,1,1.05-4.34,8.55,8.55,0,0,1,2.95-3.25,7.83,7.83,0,0,1,4.31-1.22,7,7,0,0,1,3.4.83,5.91,5.91,0,0,1,2.4,2.45,8.23,8.23,0,0,1,.89,4l-11.61.2a11.79,11.79,0,0,0,1.31,6.17A4.5,4.5,0,0,0,466,660.5a7,7,0,0,0,3.11-.8,6.54,6.54,0,0,0,2.46-1.94l.79.66a7.65,7.65,0,0,1-3.25,2.83,9.2,9.2,0,0,1-3.91.93A8,8,0,0,1,461.08,661.11Zm8-10.38a6.16,6.16,0,0,0-.89-3.39,2.93,2.93,0,0,0-2.67-1.42c-2.73,0-4.34,1.6-4.85,4.81Z"/><path class="cls-3" d="M475.24,660.66a1.71,1.71,0,0,0,1.37-.48,2.18,2.18,0,0,0,.5-1.22c.05-.49.08-1.27.08-2.32l0-10.06-2.71.06v-1.48h2.71v-.69a10.23,10.23,0,0,1,1.4-5.86,5.11,5.11,0,0,1,4.53-2,4.83,4.83,0,0,1,2.39.63,2,2,0,0,1,1.14,1.81,1.52,1.52,0,0,1-.38,1.08,1.36,1.36,0,0,1-1,.41,1.18,1.18,0,0,1-1-.45,1.46,1.46,0,0,1-.35-.9,2,2,0,0,1,.17-.83,1.68,1.68,0,0,0-.63-.41,2.21,2.21,0,0,0-.79-.15,2.07,2.07,0,0,0-2,1.14,5.93,5.93,0,0,0-.6,2.79v3.46h4.46v1.29l-4.46.09,0,11.61a13.83,13.83,0,0,1-.14,2.25l2.08-.1v1.35h-6.73Z"/><path class="cls-3" d="M489.94,661.11a7.65,7.65,0,0,1-2.89-3.07,9.75,9.75,0,0,1-1.05-4.6,9.3,9.3,0,0,1,1.05-4.34,8.55,8.55,0,0,1,2.95-3.25,7.83,7.83,0,0,1,4.31-1.22,7,7,0,0,1,3.4.83,5.91,5.91,0,0,1,2.4,2.45,8.23,8.23,0,0,1,.89,4l-11.61.2a11.79,11.79,0,0,0,1.31,6.17,4.5,4.5,0,0,0,4.14,2.21,7,7,0,0,0,3.11-.8,6.54,6.54,0,0,0,2.46-1.94l.79.66a7.65,7.65,0,0,1-3.25,2.83,9.2,9.2,0,0,1-3.91.93A8,8,0,0,1,489.94,661.11Zm8-10.38a6.16,6.16,0,0,0-.89-3.39,2.93,2.93,0,0,0-2.67-1.42c-2.73,0-4.34,1.6-4.85,4.81Z"/><path class="cls-3" d="M503.94,660.66a1.73,1.73,0,0,0,1.37-.48,2.17,2.17,0,0,0,.49-1.22,21.31,21.31,0,0,0,.09-2.32v-7.52A13.17,13.17,0,0,1,506,647l-2.34.1v-1.35h1a5.29,5.29,0,0,0,1.81-.22,3.11,3.11,0,0,0,1.06-.67h.95c.09.86.15,1.95.17,3.26a7.9,7.9,0,0,1,2.36-2.4,5.48,5.48,0,0,1,3.18-1.06,2.57,2.57,0,0,1,1.65.53,1.87,1.87,0,0,1,.66,1.55,1.72,1.72,0,0,1-.41,1,1.39,1.39,0,0,1-1.17.53,1.49,1.49,0,0,1-1.19-.54,1.59,1.59,0,0,1-.36-1.3,3.89,3.89,0,0,0-2.53.95,8.42,8.42,0,0,0-2.16,2.64l0,8.11a14.07,14.07,0,0,1-.13,2.25l2.08-.1v1.35h-6.76Z"/><path class="cls-3" d="M521.87,661.11A7.58,7.58,0,0,1,519,658a9.75,9.75,0,0,1-1.06-4.6A9.31,9.31,0,0,1,519,649.1a8.47,8.47,0,0,1,2.95-3.25,7.83,7.83,0,0,1,4.31-1.22,7,7,0,0,1,3.39.83,5.93,5.93,0,0,1,2.41,2.45,8.34,8.34,0,0,1,.89,4l-11.61.2a11.8,11.8,0,0,0,1.3,6.17,4.51,4.51,0,0,0,4.14,2.21,7,7,0,0,0,3.12-.8,6.54,6.54,0,0,0,2.46-1.94l.79.66a7.71,7.71,0,0,1-3.25,2.83,9.2,9.2,0,0,1-3.91.93A8,8,0,0,1,521.87,661.11Zm8-10.38a6.25,6.25,0,0,0-.89-3.39,2.93,2.93,0,0,0-2.67-1.42c-2.73,0-4.34,1.6-4.85,4.81Z"/><path class="cls-3" d="M535.87,660.66a1.74,1.74,0,0,0,1.37-.48,2,2,0,0,0,.47-1.18c0-.48.08-1.26.1-2.36l0-7.52A13.17,13.17,0,0,1,538,647l-2.34.13v-1.38a10.63,10.63,0,0,0,2.67-.22,3,3,0,0,0,1.22-.67h1c0,.42.09,1.09.14,2a9.4,9.4,0,0,1,2.55-1.6,7.14,7.14,0,0,1,2.82-.61,4.84,4.84,0,0,1,4.19,1.8q1.32,1.8,1.32,5.59v6.13a14.07,14.07,0,0,1-.13,2.25l2.08-.1v1.35h-6.73v-1a1.73,1.73,0,0,0,1.37-.48,2.17,2.17,0,0,0,.49-1.22,21.94,21.94,0,0,0,.08-2.32V652a8.41,8.41,0,0,0-.92-4.27,3.05,3.05,0,0,0-2.8-1.44,5.14,5.14,0,0,0-2.36.6,5.58,5.58,0,0,0-1.93,1.55c0,.24,0,.67,0,1.28l0,8.41a15.37,15.37,0,0,1-.13,2.25l2.08-.1v1.35h-6.73Z"/><path class="cls-3" d="M559.83,661.16a7.51,7.51,0,0,1-3-2.94,8.93,8.93,0,0,1-1.09-4.52,9.35,9.35,0,0,1,1.1-4.4,9,9,0,0,1,3.07-3.38,7.91,7.91,0,0,1,4.44-1.29,8.44,8.44,0,0,1,3.16.56,5.33,5.33,0,0,1,2.16,1.49,3,3,0,0,1,.78,2,1.83,1.83,0,0,1-.43,1.25,1.5,1.5,0,0,1-1.19.5,1.3,1.3,0,0,1-1.09-.48,1.67,1.67,0,0,1-.36-1,1.79,1.79,0,0,1,.5-1.32,2.23,2.23,0,0,0-1.41-1.4,6,6,0,0,0-2.06-.38,4.7,4.7,0,0,0-2.72.83,5.49,5.49,0,0,0-1.89,2.4,9.31,9.31,0,0,0-.7,3.8,10.23,10.23,0,0,0,.71,3.92,6.23,6.23,0,0,0,2,2.69,4.77,4.77,0,0,0,3,1,6,6,0,0,0,2.92-.8,6.53,6.53,0,0,0,2.25-2l.86.66a8,8,0,0,1-3.15,2.9,8.2,8.2,0,0,1-3.77,1A8.41,8.41,0,0,1,559.83,661.16Z"/><path class="cls-3" d="M573.43,660.66a1.71,1.71,0,0,0,1.37-.48,2.18,2.18,0,0,0,.5-1.22c.05-.49.08-1.27.08-2.32v-7.52a19.1,19.1,0,0,1,.13-2.15l-2.34.13v-1.38a12,12,0,0,0,2.79-.23,3.11,3.11,0,0,0,1.3-.66h1v13.32a13.83,13.83,0,0,1-.14,2.25l2.08-.1v1.35h-6.73ZM575.48,641a2,2,0,0,1,0-2.76,1.64,1.64,0,0,1,1.23-.59,1.61,1.61,0,0,1,1.27.58,2,2,0,0,1,.51,1.4A1.94,1.94,0,0,1,578,641a1.71,1.71,0,0,1-1.27.57A1.62,1.62,0,0,1,575.48,641Z"/><path class="cls-3" d="M583.64,661.09a3.59,3.59,0,0,1-1.27-2.84,4.09,4.09,0,0,1,1.54-3.23,9.77,9.77,0,0,1,3.86-2,16.54,16.54,0,0,1,4.66-.61V650.4a7.42,7.42,0,0,0-.62-3.34c-.42-.81-1.31-1.21-2.68-1.21a4.62,4.62,0,0,0-1.94.43,2.74,2.74,0,0,0-1.35,1.29,1.78,1.78,0,0,1,.42,1.25,1.48,1.48,0,0,1-.36.94,1.27,1.27,0,0,1-1,.45,1.36,1.36,0,0,1-1.09-.45,1.68,1.68,0,0,1-.4-1.17,2.89,2.89,0,0,1,.84-2,5.72,5.72,0,0,1,2.34-1.43,10.1,10.1,0,0,1,3.35-.53A5.22,5.22,0,0,1,594,646.1a6.69,6.69,0,0,1,1.29,4.63l0,7.42a20,20,0,0,1-.14,2.25l2.35-.14v1.39h-4.72c-.07-.33-.14-1-.23-1.88a7.24,7.24,0,0,1-5.18,2.41A5.48,5.48,0,0,1,583.64,661.09Zm6.71-1.27a8,8,0,0,0,2.08-1.47q0-.5,0-1.68l0-3.1a12.15,12.15,0,0,0-4.81,1.1,3.27,3.27,0,0,0-2.11,3.09,2.43,2.43,0,0,0,.72,1.88,2.64,2.64,0,0,0,1.85.66A5.28,5.28,0,0,0,590.35,659.82Z"/><path class="cls-3" d="M603.65,661.77a8.89,8.89,0,0,1-2.21-1l.13,1.15h-1.39l-.19-5.67h1a4.89,4.89,0,0,0,4.88,4.68,4.73,4.73,0,0,0,2.52-.67,2.14,2.14,0,0,0,1.11-1.93,2.23,2.23,0,0,0-.55-1.55,4.27,4.27,0,0,0-1.35-1c-.54-.28-1.29-.6-2.26-1a23.71,23.71,0,0,1-2.8-1.23,5.81,5.81,0,0,1-1.82-1.57,4,4,0,0,1-.75-2.51,4.94,4.94,0,0,1,.52-2.17,4.55,4.55,0,0,1,1.78-1.85,6.38,6.38,0,0,1,3.34-.76,7.05,7.05,0,0,1,2.09.33,5.86,5.86,0,0,1,2,1.09l-.07-1.25H611v5.77H610a5.9,5.9,0,0,0-1.17-3.32,3.6,3.6,0,0,0-3-1.4,3.55,3.55,0,0,0-2.36.74,2.27,2.27,0,0,0-.87,1.77,2.31,2.31,0,0,0,.58,1.61,5.07,5.07,0,0,0,1.43,1.13,23.73,23.73,0,0,0,2.31,1,25.38,25.38,0,0,1,2.77,1.28,6,6,0,0,1,1.8,1.57,3.82,3.82,0,0,1,.74,2.36,4.34,4.34,0,0,1-.81,2.67,4.88,4.88,0,0,1-2.11,1.63,7.05,7.05,0,0,1-2.79.55A9.34,9.34,0,0,1,603.65,661.77Z"/><path class="cls-3" d="M883.63,341.54a2.37,2.37,0,0,0,1.65-.53,1.85,1.85,0,0,0,.56-1.17c0-.45.07-1.23.07-2.36V323.24c0-.93,0-1.72.09-2.38l-2.37.13v-1.45h7.42v1.09a2.37,2.37,0,0,0-1.65.53,1.9,1.9,0,0,0-.56,1.17c0,.45-.06,1.24-.06,2.36v5.47h11.8v-6.92c0-.93,0-1.72.1-2.38l-2.37.13v-1.45h7.42v1.09a2.37,2.37,0,0,0-1.65.53,1.85,1.85,0,0,0-.56,1.17c0,.45-.07,1.24-.07,2.36v14a23.68,23.68,0,0,1-.1,2.6l2.38-.13v1.45h-7.42v-1.09A2.37,2.37,0,0,0,900,341a1.9,1.9,0,0,0,.56-1.17c0-.45.06-1.23.06-2.36v-6l-11.8.13v7.1c0,1.16,0,2-.1,2.6l2.37-.13v1.45h-7.42Z"/><path class="cls-3" d="M908.76,341.64a1.71,1.71,0,0,0,1.37-.48,2.18,2.18,0,0,0,.5-1.22c0-.49.08-1.27.08-2.32V330.1a19.1,19.1,0,0,1,.13-2.15l-2.34.13V326.7a12,12,0,0,0,2.79-.23,3.24,3.24,0,0,0,1.3-.66h1v13.32a13.83,13.83,0,0,1-.14,2.25l2.08-.1v1.35h-6.73Zm2-19.67a2,2,0,0,1,0-2.76,1.64,1.64,0,0,1,1.23-.59,1.61,1.61,0,0,1,1.27.58,2,2,0,0,1,.51,1.4,1.94,1.94,0,0,1-.54,1.37,1.71,1.71,0,0,1-1.27.57A1.62,1.62,0,0,1,910.81,322Z"/><path class="cls-3" d="M922,342.75a8.55,8.55,0,0,1-2.21-1l.13,1.15h-1.39l-.19-5.67h1a4.81,4.81,0,0,0,.74,2.41,4.89,4.89,0,0,0,1.78,1.66,4.77,4.77,0,0,0,2.36.61,4.7,4.7,0,0,0,2.52-.67,2.14,2.14,0,0,0,1.11-1.93,2.23,2.23,0,0,0-.55-1.55,4.27,4.27,0,0,0-1.35-1c-.54-.28-1.29-.6-2.26-1a23.71,23.71,0,0,1-2.8-1.23,5.92,5.92,0,0,1-1.82-1.57,4,4,0,0,1-.75-2.51,4.94,4.94,0,0,1,.52-2.17,4.52,4.52,0,0,1,1.79-1.85,6.32,6.32,0,0,1,3.33-.76,7.05,7.05,0,0,1,2.09.33,5.77,5.77,0,0,1,2,1.09l-.07-1.25h1.39v5.77h-1.06a5.9,5.9,0,0,0-1.17-3.32,4,4,0,0,0-5.38-.66,2.27,2.27,0,0,0-.87,1.77,2.33,2.33,0,0,0,.58,1.61,5.07,5.07,0,0,0,1.43,1.13,23.73,23.73,0,0,0,2.31,1,25.38,25.38,0,0,1,2.77,1.28,6,6,0,0,1,1.8,1.57,3.82,3.82,0,0,1,.74,2.36,4.32,4.32,0,0,1-.81,2.67,4.88,4.88,0,0,1-2.11,1.63,7.05,7.05,0,0,1-2.79.55A9.34,9.34,0,0,1,922,342.75Z"/><path class="cls-3" d="M935,337.09l.06-9.57-2.54,0v-1.42a3.39,3.39,0,0,0,2.69-1.44,9.42,9.42,0,0,0,1.64-3.18H938v4.62h5.54v1.29l-5.54.06c0,3.37,0,5.7,0,7s0,2,0,2.18a8.3,8.3,0,0,0,.56,3.48,2,2,0,0,0,1.95,1.14,3.19,3.19,0,0,0,1.7-.53,4.8,4.8,0,0,0,1.46-1.45l.89.72a7,7,0,0,1-2.54,2.53,5.64,5.64,0,0,1-2.44.61Q935,343.16,935,337.09Z"/><path class="cls-3" d="M950.08,342.09a7.93,7.93,0,0,1-3-3,8.51,8.51,0,0,1-1.1-4.32,10,10,0,0,1,1.09-4.67,8.49,8.49,0,0,1,3-3.3,7.73,7.73,0,0,1,4.21-1.2,8.23,8.23,0,0,1,4.19,1.11,8.05,8.05,0,0,1,3,3,8.36,8.36,0,0,1,1.11,4.26,9.79,9.79,0,0,1-1.11,4.62,8.63,8.63,0,0,1-3,3.33,7.61,7.61,0,0,1-4.2,1.22A8.35,8.35,0,0,1,950.08,342.09Zm8-2.23a9.72,9.72,0,0,0,1.13-4.91,12.25,12.25,0,0,0-1.23-5.71,4,4,0,0,0-3.71-2.38,4,4,0,0,0-3.68,2,9.31,9.31,0,0,0-1.24,4.94,13.28,13.28,0,0,0,.58,3.95,6.81,6.81,0,0,0,1.75,3,4,4,0,0,0,2.85,1.12A3.81,3.81,0,0,0,958.06,339.86Z"/><path class="cls-3" d="M965.36,341.64a1.71,1.71,0,0,0,1.37-.48,2.18,2.18,0,0,0,.5-1.22c0-.49.08-1.27.08-2.32V330.1a13.17,13.17,0,0,1,.13-2.15l-2.34.1V326.7h1a5.35,5.35,0,0,0,1.82-.22,3.16,3.16,0,0,0,1-.67h1c.09.86.14,1.94.16,3.26a8,8,0,0,1,2.36-2.4,5.48,5.48,0,0,1,3.18-1.06,2.57,2.57,0,0,1,1.65.53,1.87,1.87,0,0,1,.66,1.55,1.72,1.72,0,0,1-.41,1.05,1.39,1.39,0,0,1-1.17.53,1.49,1.49,0,0,1-1.19-.54,1.58,1.58,0,0,1-.36-1.3,3.85,3.85,0,0,0-2.52.95,8.31,8.31,0,0,0-2.17,2.64l0,8.11a15.37,15.37,0,0,1-.13,2.25l2.07-.1v1.35h-6.76Z"/><path class="cls-3" d="M979.64,341.64a1.71,1.71,0,0,0,1.37-.48,2.18,2.18,0,0,0,.5-1.22c0-.49.08-1.27.08-2.32V330.1a19.1,19.1,0,0,1,.13-2.15l-2.34.13V326.7a12,12,0,0,0,2.79-.23,3.24,3.24,0,0,0,1.3-.66h1v13.32a13.83,13.83,0,0,1-.14,2.25l2.08-.1v1.35h-6.73ZM981.69,322a2,2,0,0,1,0-2.76,1.64,1.64,0,0,1,1.23-.59,1.61,1.61,0,0,1,1.27.58,2,2,0,0,1,.51,1.4,1.94,1.94,0,0,1-.54,1.37,1.71,1.71,0,0,1-1.27.57A1.62,1.62,0,0,1,981.69,322Z"/><path class="cls-3" d="M989.85,342.07a3.59,3.59,0,0,1-1.27-2.84,4.09,4.09,0,0,1,1.54-3.23,9.77,9.77,0,0,1,3.86-2,16.54,16.54,0,0,1,4.66-.61v-2.05A7.42,7.42,0,0,0,998,328c-.42-.81-1.31-1.21-2.68-1.21a4.47,4.47,0,0,0-1.94.43,2.74,2.74,0,0,0-1.35,1.29,1.77,1.77,0,0,1,.42,1.25,1.48,1.48,0,0,1-.36.94,1.27,1.27,0,0,1-1.05.45,1.36,1.36,0,0,1-1.09-.45,1.68,1.68,0,0,1-.4-1.17,2.89,2.89,0,0,1,.84-2,5.72,5.72,0,0,1,2.34-1.43,10.1,10.1,0,0,1,3.35-.53,5.22,5.22,0,0,1,4.09,1.47,6.69,6.69,0,0,1,1.29,4.63l0,7.42a20,20,0,0,1-.14,2.25l2.35-.13v1.38h-4.72c-.07-.33-.14-1-.23-1.88a7.24,7.24,0,0,1-5.18,2.41A5.48,5.48,0,0,1,989.85,342.07Zm6.71-1.27a8,8,0,0,0,2.08-1.47q0-.49,0-1.68l0-3.1a12.15,12.15,0,0,0-4.81,1.1,3.27,3.27,0,0,0-2.11,3.09,2.43,2.43,0,0,0,.72,1.88,2.64,2.64,0,0,0,1.85.66A5.28,5.28,0,0,0,996.56,340.8Z"/><path class="cls-3" d="M570.13,340.36a10.94,10.94,0,0,1-4-4.22,12.33,12.33,0,0,1-1.43-5.94,14.33,14.33,0,0,1,1.3-6.07,11.06,11.06,0,0,1,3.89-4.6,10.82,10.82,0,0,1,6.25-1.77,11.81,11.81,0,0,1,6.66,2l-.16-1.78h1.78v7.65h-1.19a7.43,7.43,0,0,0-2.16-4.8,6.54,6.54,0,0,0-4.7-1.73,7.46,7.46,0,0,0-4.27,1.3,8.89,8.89,0,0,0-3.05,3.71,13,13,0,0,0-1.12,5.57,12,12,0,0,0,1.18,5.43,9.46,9.46,0,0,0,3.2,3.73,7.91,7.91,0,0,0,4.46,1.33,9.63,9.63,0,0,0,4.25-1,8.91,8.91,0,0,0,3.37-2.8l.85.69a10.7,10.7,0,0,1-4.38,3.75,12.44,12.44,0,0,1-5,1.07A11,11,0,0,1,570.13,340.36Z"/><path class="cls-3" d="M591.7,340.84a8,8,0,0,1-3-3,8.42,8.42,0,0,1-1.11-4.32,10.07,10.07,0,0,1,1.09-4.67,8.52,8.52,0,0,1,3-3.3,7.67,7.67,0,0,1,4.2-1.2,8.18,8.18,0,0,1,4.19,1.11,8.08,8.08,0,0,1,3,3,8.36,8.36,0,0,1,1.11,4.26,9.79,9.79,0,0,1-1.11,4.62,8.79,8.79,0,0,1-3,3.33,7.67,7.67,0,0,1-4.21,1.22A8.38,8.38,0,0,1,591.7,340.84Zm8-2.23a9.72,9.72,0,0,0,1.14-4.91,12.13,12.13,0,0,0-1.24-5.71,4,4,0,0,0-3.71-2.38,4,4,0,0,0-3.67,2,9.22,9.22,0,0,0-1.24,4.94,13,13,0,0,0,.58,3.95,6.8,6.8,0,0,0,1.74,3,4,4,0,0,0,2.86,1.12A3.8,3.8,0,0,0,599.68,338.61Z"/><path class="cls-3" d="M610.91,341.5a8.88,8.88,0,0,1-2.21-1l.13,1.15h-1.38l-.2-5.67h1A4.83,4.83,0,0,0,610.8,340a5,5,0,0,0,4.88-.06,2.13,2.13,0,0,0,1.1-1.93,2.27,2.27,0,0,0-.54-1.55,4.27,4.27,0,0,0-1.35-1c-.54-.28-1.29-.6-2.26-1a23,23,0,0,1-2.8-1.23,5.81,5.81,0,0,1-1.82-1.57,4,4,0,0,1-.76-2.51,5,5,0,0,1,.53-2.17,4.49,4.49,0,0,1,1.78-1.85,6.36,6.36,0,0,1,3.33-.76,7.17,7.17,0,0,1,2.1.33,5.73,5.73,0,0,1,2,1.09l-.06-1.25h1.38v5.77h-1a5.9,5.9,0,0,0-1.17-3.32,3.61,3.61,0,0,0-3-1.4,3.55,3.55,0,0,0-2.36.74,2.27,2.27,0,0,0-.87,1.77,2.37,2.37,0,0,0,.57,1.61,5.12,5.12,0,0,0,1.44,1.13,23.73,23.73,0,0,0,2.31,1,26.31,26.31,0,0,1,2.77,1.28,5.85,5.85,0,0,1,1.79,1.57,3.76,3.76,0,0,1,.75,2.36,4.32,4.32,0,0,1-.81,2.67,4.88,4.88,0,0,1-2.11,1.63,7.05,7.05,0,0,1-2.79.55A9.46,9.46,0,0,1,610.91,341.5Z"/><path class="cls-3" d="M624,335.84l.07-9.57-2.54,0v-1.42a3.4,3.4,0,0,0,2.69-1.44,9.23,9.23,0,0,0,1.63-3.18h1.12v4.62h5.54v1.29l-5.54.06c0,3.37,0,5.7-.05,7s0,2,0,2.18a8.15,8.15,0,0,0,.56,3.48,2,2,0,0,0,1.94,1.14,3.17,3.17,0,0,0,1.7-.53,4.94,4.94,0,0,0,1.47-1.45l.89.72a7.11,7.11,0,0,1-2.54,2.53,5.64,5.64,0,0,1-2.44.61Q623.95,341.91,624,335.84Z"/><path class="cls-3" d="M637.88,340.29c-.87-1.08-1.3-2.93-1.3-5.57v-5.87a13.17,13.17,0,0,1,.13-2.15l-2.28.1v-1.35h1a6.37,6.37,0,0,0,1.95-.23,3.35,3.35,0,0,0,1.12-.66h1v10.06a8.55,8.55,0,0,0,.81,4.25,2.85,2.85,0,0,0,2.68,1.36,4.57,4.57,0,0,0,2.4-.73,6.17,6.17,0,0,0,1.89-1.81v-8.48a15.33,15.33,0,0,1,.17-2.51l-2.38.1v-1.35h1a6.37,6.37,0,0,0,1.95-.23,3.35,3.35,0,0,0,1.12-.66h1l0,12.47a28.8,28.8,0,0,1-.13,3.1l2.38-.13v1.38h-4.72c-.11-.68-.19-1.34-.23-2a9.27,9.27,0,0,1-2.54,1.8,6.48,6.48,0,0,1-2.84.71A5,5,0,0,1,637.88,340.29Z"/><path class="cls-3" d="M654.71,340.39a1.71,1.71,0,0,0,1.37-.48,2.18,2.18,0,0,0,.5-1.22c0-.49.08-1.27.08-2.32v-7.52a14.41,14.41,0,0,1,.13-2.15l-2.34.13v-1.38a10.52,10.52,0,0,0,2.67-.22,2.9,2.9,0,0,0,1.22-.67h1c0,.33.09.91.13,1.75a8,8,0,0,1,2.31-1.42,6.69,6.69,0,0,1,2.54-.53,5.92,5.92,0,0,1,2.75.58,4.23,4.23,0,0,1,1.77,1.63,11.34,11.34,0,0,1,2.65-1.58,7.15,7.15,0,0,1,2.82-.63,5,5,0,0,1,4.24,1.77c.89,1.17,1.32,3.05,1.27,5.62l0,6.13a14.07,14.07,0,0,1-.13,2.25l2.08-.1v1.35H675v-1a1.74,1.74,0,0,0,1.37-.48,2.17,2.17,0,0,0,.49-1.22c0-.49.08-1.27.08-2.32v-4.62a8,8,0,0,0-.89-4.24,3.08,3.08,0,0,0-2.8-1.4,5.3,5.3,0,0,0-2.06.44,6.19,6.19,0,0,0-1.83,1.18,7.82,7.82,0,0,1,.33,2.4l-.07,7.75a14.07,14.07,0,0,1-.13,2.25l2.08-.1v1.35h-6.73v-1a1.73,1.73,0,0,0,1.37-.48,2.12,2.12,0,0,0,.48-1.18c0-.48.07-1.26.09-2.36l0-4.62a8.34,8.34,0,0,0-.83-4.29,3,3,0,0,0-2.74-1.42,5.2,5.2,0,0,0-2,.43,5.52,5.52,0,0,0-1.74,1.16l0,1.78v8.47a15.37,15.37,0,0,1-.13,2.25l2.07-.1v1.35h-6.73Z"/><path class="cls-3" d="M689.38,341.45a5.37,5.37,0,0,1-2.24-1.55l-.8,1.48h-1.15l.07-20.61a18.93,18.93,0,0,1,.1-2.15l-2.35.13v-1.38a12.18,12.18,0,0,0,2.82-.23,3.28,3.28,0,0,0,1.31-.66h1v9.83a6.46,6.46,0,0,1,2.2-1.44,7.75,7.75,0,0,1,6.61.51,7.11,7.11,0,0,1,2.69,2.94,9.59,9.59,0,0,1,1,4.42,9.43,9.43,0,0,1-1.19,4.81,8.43,8.43,0,0,1-3.16,3.22,8.33,8.33,0,0,1-4.22,1.14A7.89,7.89,0,0,1,689.38,341.45Zm6.38-2.82a8.41,8.41,0,0,0,1.4-5.07,10.3,10.3,0,0,0-1.28-5.52,4.19,4.19,0,0,0-3.8-2.06,5,5,0,0,0-2.16.51,5.79,5.79,0,0,0-1.83,1.37v8.34c0,2.9,1.3,4.36,3.9,4.36A4.43,4.43,0,0,0,695.76,338.63Z"/><path class="cls-3" d="M703.4,340.39a1.73,1.73,0,0,0,1.37-.48,2.17,2.17,0,0,0,.49-1.22,21.94,21.94,0,0,0,.08-2.32v-7.52a13,13,0,0,1,.14-2.15l-2.35.1v-1.35h1a5.29,5.29,0,0,0,1.81-.22,3.2,3.2,0,0,0,1.06-.67h1c.09.86.15,1.94.17,3.26a7.9,7.9,0,0,1,2.36-2.4,5.48,5.48,0,0,1,3.18-1.06,2.57,2.57,0,0,1,1.65.53,1.87,1.87,0,0,1,.66,1.55,1.68,1.68,0,0,1-.42,1.05,1.37,1.37,0,0,1-1.17.53,1.47,1.47,0,0,1-1.18-.54,1.62,1.62,0,0,1-.37-1.3,3.89,3.89,0,0,0-2.52.95,8.16,8.16,0,0,0-2.16,2.64l0,8.11a14.07,14.07,0,0,1-.13,2.25l2.08-.1v1.35H703.4Z"/><path class="cls-3" d="M721.32,340.84a7.56,7.56,0,0,1-2.88-3.07,9.64,9.64,0,0,1-1.06-4.6,9.19,9.19,0,0,1,1.06-4.34,8.47,8.47,0,0,1,2.95-3.25,7.8,7.8,0,0,1,4.3-1.22,7,7,0,0,1,3.4.83,5.93,5.93,0,0,1,2.41,2.45,8.34,8.34,0,0,1,.89,4l-11.61.2a11.8,11.8,0,0,0,1.3,6.17,4.5,4.5,0,0,0,4.14,2.21,7,7,0,0,0,3.12-.8,6.62,6.62,0,0,0,2.46-1.94l.79.66a7.71,7.71,0,0,1-3.25,2.83,9.2,9.2,0,0,1-3.91.93A8,8,0,0,1,721.32,340.84Zm8-10.38a6.25,6.25,0,0,0-.89-3.39,3,3,0,0,0-2.67-1.42q-4.1,0-4.85,4.81Z"/><path class="cls-3" d="M739.25,341.5a8.71,8.71,0,0,1-2.21-1l.13,1.15h-1.38l-.2-5.67h1a4.92,4.92,0,0,0,.74,2.41,5,5,0,0,0,1.78,1.66A5,5,0,0,0,744,340a2.15,2.15,0,0,0,1.1-1.93,2.27,2.27,0,0,0-.54-1.55,4.43,4.43,0,0,0-1.36-1c-.53-.28-1.29-.6-2.25-1a24,24,0,0,1-2.81-1.23,5.77,5.77,0,0,1-1.81-1.57,4,4,0,0,1-.76-2.51,4.82,4.82,0,0,1,.53-2.17,4.43,4.43,0,0,1,1.78-1.85,6.32,6.32,0,0,1,3.33-.76,7.05,7.05,0,0,1,2.09.33,5.77,5.77,0,0,1,2,1.09l-.07-1.25h1.39v5.77h-1.06a5.75,5.75,0,0,0-1.17-3.32,3.58,3.58,0,0,0-3-1.4,3.52,3.52,0,0,0-2.35.74,2.25,2.25,0,0,0-.88,1.77,2.33,2.33,0,0,0,.58,1.61,5.07,5.07,0,0,0,1.43,1.13,24.88,24.88,0,0,0,2.31,1,24.52,24.52,0,0,1,2.77,1.28,5.77,5.77,0,0,1,1.8,1.57,3.76,3.76,0,0,1,.74,2.36,4.32,4.32,0,0,1-.81,2.67,4.83,4.83,0,0,1-2.11,1.63,7,7,0,0,1-2.78.55A9.41,9.41,0,0,1,739.25,341.5Z"/></svg>